<svg xmlns="http://www.w3.org/2000/svg" viewBox="0 0 128 128">
  <rect width="128" height="128" rx="20" fill="#25D366"/>
  <path d="M64 20c24.3 0 44 19.7 44 44 0 7.8-2.1 15.1-5.7 21.4L108 108l-22.6-5.7c-6.3 3.6-13.6 5.7-21.4 5.7-24.3 0-44-19.7-44-44s19.7-44 44-44z" fill="white"/>
  <path d="M52 45c-1.1 0-2.1.4-2.9 1.1-2.8 2.8-2.8 7.4 0 10.2L64 71.2l14.9-14.9c2.8-2.8 2.8-7.4 0-10.2-.8-.7-1.8-1.1-2.9-1.1s-2.1.4-2.9 1.1L64 55.2 54.9 46.1c-.8-.7-1.8-1.1-2.9-1.1z" fill="#25D366"/>
  <path d="M76 83c1.1 0 2.1-.4 2.9-1.1 2.8-2.8 2.8-7.4 0-10.2L64 56.8 49.1 71.7c-2.8 2.8-2.8 7.4 0 10.2.8.7 1.8 1.1 2.9 1.1s2.1-.4 2.9-1.1L64 72.8 73.1 81.9c.8.7 1.8 1.1 2.9 1.1z" fill="#25D366"/>
</svg>